<svg width="16" height="17" viewBox="0 0 16 17" fill="none" xmlns="http://www.w3.org/2000/svg">
<path d="M1.99966 0.480103L2.99966 2.4801L1.99966 4.4801L3.99966 3.4801L5.99966 4.4801L4.99966 2.4801L5.99966 0.480103L3.99966 1.4801L1.99966 0.480103Z" fill="#AD46FF"/>
<path d="M11.9997 0.480103L12.9997 2.4801L11.9997 4.4801L13.9997 3.4801L15.9997 4.4801L14.9997 2.4801L15.9997 0.480103L13.9997 1.4801L11.9997 0.480103Z" fill="#AD46FF"/>
<path d="M11.9997 10.4801L12.9997 12.4801L11.9997 14.4801L13.9997 13.4801L15.9997 14.4801L14.9997 12.4801L15.9997 10.4801L13.9997 11.4801L11.9997 10.4801Z" fill="#AD46FF"/>
<rect x="6.29199" y="8.06573" width="3.743" height="3" transform="rotate(-45 6.29199 8.06573)" fill="#AD46FF"/>
<rect x="0.000335693" y="14.3585" width="7.9" height="3" transform="rotate(-45 0.000335693 14.3585)" fill="#AD46FF"/>
</svg>
