<svg width="17" height="17" viewBox="0 0 17 17" fill="none" xmlns="http://www.w3.org/2000/svg">
<g clip-path="url(#clip0_9251_997)">
<path d="M13.5688 4.08304C12.591 3.63581 11.5525 3.30986 10.4685 3.12793C10.332 3.36292 10.1804 3.68129 10.0742 3.93144C8.92132 3.76467 7.77668 3.76467 6.63964 3.93144C6.53351 3.68129 6.37432 3.36292 6.24545 3.12793C5.1539 3.30986 4.1154 3.63581 3.14436 4.08304C1.18106 6.97872 0.65044 9.80614 0.915754 12.5957C2.21956 13.5433 3.47791 14.1194 4.71426 14.4984C5.01747 14.0891 5.29037 13.6494 5.52536 13.187C5.07812 13.0202 4.65362 12.8156 4.24428 12.573C4.35041 12.4972 4.45654 12.4139 4.55508 12.3304C7.02625 13.4599 9.70289 13.4599 12.1437 12.3304C12.2498 12.4139 12.3484 12.4972 12.4545 12.573C12.0452 12.8156 11.6207 13.0202 11.1735 13.187C11.4085 13.6494 11.6813 14.0891 11.9845 14.4984C13.2201 14.1194 14.486 13.5433 15.783 12.5957C16.109 9.36657 15.2668 6.56183 13.5688 4.08304ZM5.86647 10.875C5.12359 10.875 4.51716 10.2004 4.51716 9.37414C4.51716 8.54786 5.10842 7.87321 5.86647 7.87321C6.6169 7.87321 7.23089 8.54786 7.21575 9.37414C7.21575 10.2004 6.6169 10.875 5.86647 10.875ZM10.8475 10.875C10.1046 10.875 9.49739 10.2004 9.49739 9.37414C9.49739 8.54786 10.0895 7.87321 10.8475 7.87321C11.598 7.87321 12.212 8.54786 12.1967 9.37414C12.1967 10.2004 11.6055 10.875 10.8475 10.875Z" fill="#45556C"/>
</g>
<defs>
<clipPath id="clip0_9251_997">
<rect width="16" height="16" fill="white" transform="translate(0.352112 0.840088)"/>
</clipPath>
</defs>
</svg>
