<svg width="16" height="17" viewBox="0 0 16 17" fill="none" xmlns="http://www.w3.org/2000/svg">
<path d="M13.2167 4.08292C12.2388 3.63569 11.2004 3.30974 10.1164 3.12781C9.97992 3.3628 9.82828 3.68117 9.72214 3.93132C8.56921 3.76455 7.42457 3.76455 6.28753 3.93132C6.1814 3.68117 6.02221 3.3628 5.89334 3.12781C4.80179 3.30974 3.76329 3.63569 2.79225 4.08292C0.828949 6.9786 0.298328 9.80602 0.563642 12.5956C1.86745 13.5432 3.1258 14.1192 4.36215 14.4983C4.66536 14.0889 4.93825 13.6492 5.17325 13.1869C4.726 13.0201 4.3015 12.8154 3.89217 12.5729C3.9983 12.4971 4.10443 12.4137 4.20297 12.3303C6.67414 13.4598 9.35078 13.4598 11.7916 12.3303C11.8977 12.4137 11.9963 12.4971 12.1024 12.5729C11.6931 12.8154 11.2686 13.0201 10.8214 13.1869C11.0564 13.6492 11.3292 14.0889 11.6324 14.4983C12.868 14.1192 14.1339 13.5432 15.4309 12.5956C15.7568 9.36645 14.9147 6.56171 13.2167 4.08292ZM5.51435 10.8749C4.77147 10.8749 4.16505 10.2002 4.16505 9.37402C4.16505 8.54773 4.75631 7.87309 5.51435 7.87309C6.26479 7.87309 6.87878 8.54773 6.86364 9.37402C6.86364 10.2002 6.26479 10.8749 5.51435 10.8749ZM10.4954 10.8749C9.75249 10.8749 9.14528 10.2002 9.14528 9.37402C9.14528 8.54773 9.73735 7.87309 10.4954 7.87309C11.2459 7.87309 11.8598 8.54773 11.8446 9.37402C11.8446 10.2002 11.2534 10.8749 10.4954 10.8749Z" fill="#45556C"/>
</svg>
