<svg width="17" height="17" viewBox="0 0 17 17" fill="none" xmlns="http://www.w3.org/2000/svg">
<path d="M10.7906 15.3401V10.3094H12.475L12.7272 8.35367H10.7906V7.10506C10.7906 6.53883 10.9478 6.15294 11.7598 6.15294L12.7954 6.15246V4.4033C12.6162 4.37951 12.0016 4.32624 11.2863 4.32624C9.79314 4.32624 8.77098 5.23763 8.77098 6.91141V8.35367H7.08221V10.3094H8.77098V15.3401H2.55554C2.15667 15.3401 1.83331 15.0167 1.83331 14.6179V3.06231C1.83331 2.66344 2.15667 2.34009 2.55554 2.34009H14.1111C14.51 2.34009 14.8333 2.66344 14.8333 3.06231V14.6179C14.8333 15.0167 14.51 15.3401 14.1111 15.3401H10.7906Z" fill="#45556C"/>
</svg>
