<svg width="17" height="17" viewBox="0 0 17 17" fill="none" xmlns="http://www.w3.org/2000/svg">
<path d="M11.1427 15.3401V10.3094H12.8272L13.0793 8.35367H11.1427V7.10506C11.1427 6.53883 11.2999 6.15294 12.1119 6.15294L13.1475 6.15246V4.4033C12.9683 4.37951 12.3537 4.32624 11.6384 4.32624C10.1453 4.32624 9.12309 5.23763 9.12309 6.91141V8.35367H7.43432V10.3094H9.12309V15.3401H2.90765C2.50878 15.3401 2.18542 15.0167 2.18542 14.6179V3.06231C2.18542 2.66344 2.50878 2.34009 2.90765 2.34009H14.4632C14.8621 2.34009 15.1854 2.66344 15.1854 3.06231V14.6179C15.1854 15.0167 14.8621 15.3401 14.4632 15.3401H11.1427Z" fill="#45556C"/>
</svg>
