<svg width="16" height="17" viewBox="0 0 16 17" fill="none" xmlns="http://www.w3.org/2000/svg">
<path d="M9.67299 14.7772C9.67989 14.4414 9.68998 13.9458 9.68998 13.5068C9.68998 12.8401 9.2366 12.228 9.2366 12.228C10.742 12.0628 12.328 11.1759 12.328 8.53298C12.328 7.76213 12.0592 7.40424 11.6291 6.90869L11.6387 6.87513C11.7059 6.64226 11.9056 5.951 11.5484 5.03662C10.9839 4.84391 9.69359 5.77994 9.69359 5.77994C9.15595 5.61476 8.59144 5.5597 8.00004 5.5597C7.43552 5.5597 6.87101 5.61476 6.33337 5.77994C6.33337 5.77994 5.01617 4.87144 4.47854 5.03662C4.10219 6.00019 4.31724 6.71598 4.39789 6.90869C3.96778 7.40424 3.75273 7.76213 3.75273 8.53298C3.75273 11.1759 5.28499 12.0628 6.79036 12.228C6.79036 12.228 6.33337 12.7484 6.33337 13.4609V14.7789V15.812C3.17912 15.0607 0.833374 12.2244 0.833374 8.84013C0.833374 4.88209 4.042 1.67346 8.00004 1.67346C11.9581 1.67346 15.1667 4.88209 15.1667 8.84013C15.1667 12.2221 12.8241 15.057 9.67299 15.8105V14.7772Z" fill="#45556C"/>
</svg>
