<svg width="16" height="17" viewBox="0 0 16 17" fill="none" xmlns="http://www.w3.org/2000/svg">
<path d="M9.67299 14.777C9.67989 14.4413 9.68998 13.9457 9.68998 13.5067C9.68998 12.84 9.2366 12.2279 9.2366 12.2279C10.742 12.0627 12.328 11.1758 12.328 8.53286C12.328 7.76201 12.0592 7.40411 11.6291 6.90857L11.6387 6.87501C11.7059 6.64214 11.9056 5.95088 11.5484 5.0365C10.9839 4.84379 9.69359 5.77982 9.69359 5.77982C9.15595 5.61464 8.59144 5.55958 8.00004 5.55958C7.43552 5.55958 6.87101 5.61464 6.33337 5.77982C6.33337 5.77982 5.01617 4.87132 4.47854 5.0365C4.10219 6.00006 4.31724 6.71585 4.39789 6.90857C3.96778 7.40411 3.75273 7.76201 3.75273 8.53286C3.75273 11.1758 5.28499 12.0627 6.79036 12.2279C6.79036 12.2279 6.33337 12.7483 6.33337 13.4608V14.7788V15.8119C3.17912 15.0606 0.833374 12.2242 0.833374 8.84001C0.833374 4.88197 4.042 1.67334 8.00004 1.67334C11.9581 1.67334 15.1667 4.88197 15.1667 8.84001C15.1667 12.222 12.8241 15.0568 9.67299 15.8104V14.777Z" fill="#45556C"/>
</svg>
