<svg width="17" height="17" viewBox="0 0 17 17" fill="none" xmlns="http://www.w3.org/2000/svg">
<path d="M12.5947 13.4183H10.6696V10.4017C10.6696 9.68234 10.655 8.75667 9.66641 8.75667C8.66274 8.75667 8.50941 9.53942 8.50941 10.3486V13.4183H6.58433V7.21509H8.43358V8.06059H8.4585C8.71691 7.57309 9.34524 7.05855 10.2839 7.05855C12.2345 7.05855 12.5952 8.34233 12.5952 10.0133L12.5947 13.4183ZM4.4101 6.3663C3.79043 6.3663 3.29264 5.86471 3.29264 5.24775C3.29264 4.63134 3.79098 4.1303 4.4101 4.1303C5.0276 4.1303 5.5281 4.63134 5.5281 5.24775C5.5281 5.86471 5.02706 6.3663 4.4101 6.3663ZM5.37535 13.4183H3.44485V7.21509H5.37535V13.4183ZM13.5577 2.34009H2.47852C1.94823 2.34009 1.51923 2.75934 1.51923 3.27663V14.4036C1.51923 14.9213 1.94823 15.3401 2.47852 15.3401H13.5562C14.0859 15.3401 14.5192 14.9213 14.5192 14.4036V3.27663C14.5192 2.75934 14.0859 2.34009 13.5562 2.34009H13.5577Z" fill="#45556C"/>
</svg>
