<svg width="17" height="17" viewBox="0 0 17 17" fill="none" xmlns="http://www.w3.org/2000/svg">
<path d="M13.2426 13.4183H11.3175V10.4017C11.3175 9.68234 11.3029 8.75667 10.3143 8.75667C9.31063 8.75667 9.1573 9.53942 9.1573 10.3486V13.4183H7.23222V7.21509H9.08147V8.06059H9.10638C9.36479 7.57309 9.99313 7.05855 10.9318 7.05855C12.8824 7.05855 13.2431 8.34233 13.2431 10.0133L13.2426 13.4183ZM5.05799 6.3663C4.43832 6.3663 3.94053 5.86471 3.94053 5.24775C3.94053 4.63134 4.43886 4.1303 5.05799 4.1303C5.67549 4.1303 6.17599 4.63134 6.17599 5.24775C6.17599 5.86471 5.67495 6.3663 5.05799 6.3663ZM6.02324 13.4183H4.09274V7.21509H6.02324V13.4183ZM14.2056 2.34009H3.12641C2.59611 2.34009 2.16711 2.75934 2.16711 3.27663V14.4036C2.16711 14.9213 2.59611 15.3401 3.12641 15.3401H14.204C14.7338 15.3401 15.1671 14.9213 15.1671 14.4036V3.27663C15.1671 2.75934 14.7338 2.34009 14.204 2.34009H14.2056Z" fill="#45556C"/>
</svg>
