<svg width="17" height="17" viewBox="0 0 17 17" fill="none" xmlns="http://www.w3.org/2000/svg">
<path d="M11.248 2.84009C9.39614 2.84009 7.87909 4.29241 7.87909 6.10422C7.87909 6.14678 7.88001 6.1893 7.88186 6.23178C5.84276 5.97368 4.03309 4.9629 2.79306 3.51141C2.69615 3.39798 2.54985 3.33737 2.39985 3.34853C2.24985 3.35969 2.11443 3.44125 2.03588 3.56774C1.4228 4.55494 1.45356 5.76869 1.98011 6.73876C1.74274 6.7591 1.55258 6.96196 1.55258 7.19857C1.55258 8.17645 1.99935 9.07847 2.72293 9.69093C2.59407 9.80993 2.5426 9.99861 2.59651 10.1669C2.89267 11.0913 3.60167 11.8228 4.50547 12.1866C3.5855 12.6175 2.55096 12.7898 1.52504 12.6659C1.30809 12.6397 1.10164 12.7651 1.02767 12.9679C0.9537 13.1706 1.03191 13.3969 1.21608 13.513C2.56313 14.3617 4.17025 14.8401 5.91602 14.8401C11.5498 14.8401 14.6417 10.3446 14.6417 6.42452V6.12643L14.6537 6.11544C14.7733 6.00502 14.9263 5.84088 15.0771 5.61492C15.3815 5.15886 15.6667 4.46633 15.6667 3.48847C15.6667 3.32292 15.5768 3.17006 15.431 3.08786C15.2853 3.00565 15.1061 3.0067 14.9614 3.09059C14.5218 3.34539 14.022 3.54651 13.5141 3.67605C12.8982 3.14148 12.1093 2.84009 11.248 2.84009Z" fill="#45556C"/>
</svg>
