<svg width="112" height="26" viewBox="0 0 112 26" fill="none" xmlns="http://www.w3.org/2000/svg">
<path d="M25.3187 22.3361H21.9988V25.6577H25.3187V22.3361Z" fill="url(#paint0_linear_6989_91)"/>
<path d="M25.3187 22.3361H21.9988V25.6577H25.3187V22.3361Z" fill="url(#paint1_radial_6989_91)"/>
<path d="M25.3187 18.6878H21.9988V22.0094H25.3187V18.6878Z" fill="url(#paint2_linear_6989_91)"/>
<path d="M25.3187 18.6878H21.9988V22.0094H25.3187V18.6878Z" fill="url(#paint3_radial_6989_91)"/>
<path d="M25.3187 15.0401H21.9988V18.3617H25.3187V15.0401Z" fill="url(#paint4_linear_6989_91)"/>
<path d="M25.3187 15.0401H21.9988V18.3617H25.3187V15.0401Z" fill="url(#paint5_radial_6989_91)"/>
<path d="M25.3187 11.3918H21.9988V14.7134H25.3187V11.3918Z" fill="url(#paint6_linear_6989_91)"/>
<path d="M25.3187 11.3918H21.9988V14.7134H25.3187V11.3918Z" fill="url(#paint7_radial_6989_91)"/>
<path d="M25.3187 0.448242H21.9988V3.76983H25.3187V0.448242Z" fill="url(#paint8_linear_6989_91)"/>
<path d="M25.3187 0.448242H21.9988V3.76983H25.3187V0.448242Z" fill="url(#paint9_radial_6989_91)"/>
<path d="M21.6705 22.3361H18.3506V25.6577H21.6705V22.3361Z" fill="url(#paint10_linear_6989_91)"/>
<path d="M21.6705 22.3361H18.3506V25.6577H21.6705V22.3361Z" fill="url(#paint11_radial_6989_91)"/>
<path d="M21.6705 18.6878H18.3506V22.0094H21.6705V18.6878Z" fill="url(#paint12_linear_6989_91)"/>
<path d="M21.6705 18.6878H18.3506V22.0094H21.6705V18.6878Z" fill="url(#paint13_radial_6989_91)"/>
<path d="M21.6705 15.0401H18.3506V18.3617H21.6705V15.0401Z" fill="url(#paint14_linear_6989_91)"/>
<path d="M21.6705 15.0401H18.3506V18.3617H21.6705V15.0401Z" fill="url(#paint15_radial_6989_91)"/>
<path d="M21.6705 11.3918H18.3506V14.7134H21.6705V11.3918Z" fill="url(#paint16_linear_6989_91)"/>
<path d="M21.6705 11.3918H18.3506V14.7134H21.6705V11.3918Z" fill="url(#paint17_radial_6989_91)"/>
<path d="M21.6705 0.448242H18.3506V3.76983H21.6705V0.448242Z" fill="url(#paint18_linear_6989_91)"/>
<path d="M21.6705 0.448242H18.3506V3.76983H21.6705V0.448242Z" fill="url(#paint19_radial_6989_91)"/>
<path d="M18.0222 22.3361H14.7023V25.6577H18.0222V22.3361Z" fill="url(#paint20_linear_6989_91)"/>
<path d="M18.0222 22.3361H14.7023V25.6577H18.0222V22.3361Z" fill="url(#paint21_radial_6989_91)"/>
<path d="M18.0222 11.3918H14.7023V14.7134H18.0222V11.3918Z" fill="url(#paint22_linear_6989_91)"/>
<path d="M18.0222 11.3918H14.7023V14.7134H18.0222V11.3918Z" fill="url(#paint23_radial_6989_91)"/>
<path d="M18.0222 0.448242H14.7023V3.76983H18.0222V0.448242Z" fill="url(#paint24_linear_6989_91)"/>
<path d="M18.0222 0.448242H14.7023V3.76983H18.0222V0.448242Z" fill="url(#paint25_radial_6989_91)"/>
<path d="M14.374 22.3361H11.0541V25.6577H14.374V22.3361Z" fill="url(#paint26_linear_6989_91)"/>
<path d="M14.374 22.3361H11.0541V25.6577H14.374V22.3361Z" fill="url(#paint27_radial_6989_91)"/>
<path d="M14.374 0.448242H11.0541V3.76983H14.374V0.448242Z" fill="url(#paint28_linear_6989_91)"/>
<path d="M14.374 0.448242H11.0541V3.76983H14.374V0.448242Z" fill="url(#paint29_radial_6989_91)"/>
<path d="M10.7257 22.3361H7.40582V25.6577H10.7257V22.3361Z" fill="url(#paint30_linear_6989_91)"/>
<path d="M10.7257 22.3361H7.40582V25.6577H10.7257V22.3361Z" fill="url(#paint31_radial_6989_91)"/>
<path d="M10.7257 18.6878H7.40582V22.0094H10.7257V18.6878Z" fill="url(#paint32_linear_6989_91)"/>
<path d="M10.7257 18.6878H7.40582V22.0094H10.7257V18.6878Z" fill="url(#paint33_radial_6989_91)"/>
<path d="M10.7257 4.0959H7.40582V7.41749H10.7257V4.0959Z" fill="url(#paint34_linear_6989_91)"/>
<path d="M10.7257 4.0959H7.40582V7.41749H10.7257V4.0959Z" fill="url(#paint35_radial_6989_91)"/>
<path d="M10.7257 0.448242H7.40582V3.76983H10.7257V0.448242Z" fill="url(#paint36_linear_6989_91)"/>
<path d="M10.7257 0.448242H7.40582V3.76983H10.7257V0.448242Z" fill="url(#paint37_radial_6989_91)"/>
<path d="M7.07747 18.6878H3.75756V22.0094H7.07747V18.6878Z" fill="url(#paint38_linear_6989_91)"/>
<path d="M7.07747 18.6878H3.75756V22.0094H7.07747V18.6878Z" fill="url(#paint39_radial_6989_91)"/>
<path d="M7.07747 15.0401H3.75756V18.3617H7.07747V15.0401Z" fill="url(#paint40_linear_6989_91)"/>
<path d="M7.07747 15.0401H3.75756V18.3617H7.07747V15.0401Z" fill="url(#paint41_radial_6989_91)"/>
<path d="M7.07747 11.3918H3.75756V14.7134H7.07747V11.3918Z" fill="url(#paint42_linear_6989_91)"/>
<path d="M7.07747 11.3918H3.75756V14.7134H7.07747V11.3918Z" fill="url(#paint43_radial_6989_91)"/>
<path d="M7.07747 7.74418H3.75756V11.0658H7.07747V7.74418Z" fill="url(#paint44_linear_6989_91)"/>
<path d="M7.07747 7.74418H3.75756V11.0658H7.07747V7.74418Z" fill="url(#paint45_radial_6989_91)"/>
<path d="M7.07747 4.0959H3.75756V7.41749H7.07747V4.0959Z" fill="url(#paint46_linear_6989_91)"/>
<path d="M7.07747 4.0959H3.75756V7.41749H7.07747V4.0959Z" fill="url(#paint47_radial_6989_91)"/>
<path d="M3.42921 15.0401H0.109299V18.3617H3.42921V15.0401Z" fill="url(#paint48_linear_6989_91)"/>
<path d="M3.42921 15.0401H0.109299V18.3617H3.42921V15.0401Z" fill="url(#paint49_radial_6989_91)"/>
<path d="M3.42921 11.3918H0.109299V14.7134H3.42921V11.3918Z" fill="url(#paint50_linear_6989_91)"/>
<path d="M3.42921 11.3918H0.109299V14.7134H3.42921V11.3918Z" fill="url(#paint51_radial_6989_91)"/>
<path d="M3.42921 7.74418H0.109299V11.0658H3.42921V7.74418Z" fill="url(#paint52_linear_6989_91)"/>
<path d="M3.42921 7.74418H0.109299V11.0658H3.42921V7.74418Z" fill="url(#paint53_radial_6989_91)"/>
<path d="M108.64 19.8411V10.2573H111.469V19.8411H108.64ZM110.05 9.05027C109.583 9.05027 109.196 8.91716 108.889 8.65095C108.583 8.37868 108.429 8.03683 108.429 7.62541C108.429 7.21398 108.583 6.87516 108.889 6.60894C109.196 6.33667 109.58 6.20054 110.04 6.20054C110.507 6.20054 110.894 6.33667 111.201 6.60894C111.508 6.87516 111.661 7.21398 111.661 7.62541C111.661 8.03683 111.508 8.37868 111.201 8.65095C110.894 8.91716 110.51 9.05027 110.05 9.05027Z" fill="#0E121B"/>
<path d="M100.348 20.0045C99.6763 20.0045 99.0785 19.8986 98.5543 19.6869C98.03 19.4751 97.6176 19.1574 97.3171 18.7339C97.0166 18.3043 96.8664 17.7719 96.8664 17.1366C96.8664 16.5981 96.9719 16.1504 97.1829 15.7934C97.3938 15.4304 97.6815 15.14 98.046 14.9222C98.4168 14.6983 98.8388 14.5289 99.3119 14.4139C99.7914 14.299 100.293 14.2203 100.818 14.178C101.438 14.1175 101.93 14.06 102.294 14.0055C102.659 13.9511 102.921 13.8724 103.081 13.7696C103.241 13.6667 103.321 13.5124 103.321 13.3067V13.2432C103.321 13.0072 103.253 12.8015 103.119 12.6261C102.985 12.4445 102.793 12.3024 102.544 12.1995C102.301 12.0966 102.007 12.0452 101.661 12.0452C101.316 12.0452 101.009 12.0966 100.741 12.1995C100.479 12.3024 100.271 12.4476 100.117 12.6351C99.964 12.8227 99.8745 13.0405 99.8489 13.2886H97.1924C97.2372 12.6291 97.4418 12.0573 97.8062 11.5733C98.177 11.0893 98.6949 10.7172 99.3598 10.457C100.025 10.1908 100.821 10.0577 101.748 10.0577C102.438 10.0577 103.055 10.1333 103.599 10.2846C104.142 10.4298 104.599 10.6446 104.97 10.9289C105.347 11.2133 105.632 11.5582 105.824 11.9635C106.015 12.3689 106.111 12.8287 106.111 13.343V19.8411H103.349V18.4889H103.311C103.132 18.8035 102.911 19.0727 102.649 19.2966C102.387 19.5205 102.067 19.6959 101.69 19.823C101.313 19.944 100.866 20.0045 100.348 20.0045ZM101.134 18.144C101.588 18.144 101.978 18.0654 102.304 17.908C102.636 17.7507 102.892 17.5359 103.071 17.2637C103.25 16.9914 103.34 16.6828 103.34 16.338V15.376C103.257 15.4183 103.148 15.4607 103.014 15.503C102.879 15.5393 102.723 15.5756 102.544 15.6119C102.365 15.6422 102.17 15.6754 101.959 15.7118C101.748 15.7481 101.53 15.7813 101.307 15.8116C100.981 15.86 100.686 15.9356 100.424 16.0385C100.162 16.1353 99.9544 16.2684 99.801 16.4378C99.6475 16.6012 99.5708 16.8099 99.5708 17.064C99.5708 17.2879 99.6348 17.4815 99.7626 17.6449C99.8905 17.8082 100.073 17.9322 100.309 18.0169C100.546 18.1017 100.821 18.144 101.134 18.144Z" fill="#0E121B"/>
<path d="M93.3019 20.0045C92.8544 20.0045 92.4708 19.8563 92.1511 19.5598C91.8378 19.2573 91.6812 18.8912 91.6812 18.4617C91.6812 18.0321 91.8378 17.6691 92.1511 17.3726C92.4708 17.0701 92.8544 16.9188 93.3019 16.9188C93.7559 16.9188 94.1395 17.0701 94.4527 17.3726C94.7724 17.6691 94.9323 18.0321 94.9323 18.4617C94.9323 18.8912 94.7724 19.2573 94.4527 19.5598C94.1395 19.8563 93.7559 20.0045 93.3019 20.0045Z" fill="#0E121B"/>
<path d="M85.3547 20.0771C84.4788 20.0771 83.6988 19.95 83.0147 19.6959C82.3306 19.4358 81.784 19.0637 81.3748 18.5796C80.9656 18.0956 80.729 17.5117 80.6651 16.828H83.4463C83.4974 17.2455 83.6828 17.5722 84.0025 17.8082C84.3222 18.0442 84.7569 18.1622 85.3068 18.1622C85.831 18.1622 86.2402 18.0684 86.5343 17.8808C86.8348 17.6933 86.9851 17.4512 86.9851 17.1548C86.9851 16.9007 86.87 16.6949 86.6398 16.5376C86.416 16.3803 86.0964 16.2654 85.6808 16.1928L83.9066 15.866C82.922 15.6845 82.174 15.3578 81.6625 14.8859C81.151 14.4139 80.8953 13.8089 80.8953 13.0708C80.8953 12.4657 81.0679 11.9363 81.4131 11.4825C81.7648 11.0287 82.2603 10.6778 82.8996 10.4298C83.5454 10.1817 84.3094 10.0577 85.1917 10.0577C86.0676 10.0577 86.8316 10.1908 87.4838 10.457C88.1359 10.7172 88.6442 11.0893 89.0086 11.5733C89.3794 12.0573 89.5744 12.6321 89.5936 13.2976H86.9755C86.9691 12.9104 86.8092 12.5898 86.496 12.3356C86.1827 12.0815 85.7735 11.9545 85.2684 11.9545C84.7825 11.9545 84.4021 12.0543 84.1272 12.254C83.8523 12.4476 83.7148 12.6866 83.7148 12.9709C83.7148 13.219 83.8235 13.4217 84.0409 13.579C84.2582 13.7363 84.5587 13.8543 84.9423 13.9329L86.8604 14.2869C87.8834 14.4744 88.6346 14.783 89.1141 15.2126C89.6 15.6361 89.843 16.2018 89.843 16.9097C89.843 17.545 89.6511 18.1017 89.2675 18.5796C88.8903 19.0516 88.3629 19.4206 87.6852 19.6869C87.0138 19.947 86.237 20.0771 85.3547 20.0771Z" fill="#0E121B"/>
<path d="M57.5589 20.059C56.5423 20.059 55.6472 19.8502 54.8736 19.4327C54.1 19.0153 53.4958 18.4314 53.0611 17.6812C52.6327 16.9309 52.4185 16.0566 52.4185 15.0583C52.4185 14.0539 52.6327 13.1766 53.0611 12.4264C53.4958 11.6761 54.1 11.0923 54.8736 10.6748C55.6472 10.2513 56.5423 10.0395 57.5589 10.0395C58.5882 10.0395 59.4865 10.2513 60.2537 10.6748C61.0273 11.0923 61.6283 11.6761 62.0567 12.4264C62.4914 13.1766 62.7088 14.0539 62.7088 15.0583C62.7088 16.0566 62.4914 16.9309 62.0567 17.6812C61.6283 18.4314 61.0273 19.0153 60.2537 19.4327C59.4865 19.8502 58.5882 20.059 57.5589 20.059ZM57.5589 17.8899C58.0192 17.8899 58.422 17.778 58.7672 17.5541C59.1125 17.3242 59.381 16.9975 59.5728 16.5739C59.7646 16.1504 59.8605 15.6452 59.8605 15.0583C59.8605 14.4593 59.7646 13.9481 59.5728 13.5245C59.381 13.101 59.1125 12.7773 58.7672 12.5534C58.422 12.3235 58.0192 12.2086 57.5589 12.2086C57.1049 12.2086 56.7053 12.3235 56.3601 12.5534C56.0148 12.7773 55.7463 13.101 55.5545 13.5245C55.3627 13.9481 55.2668 14.4593 55.2668 15.0583C55.2668 15.6512 55.3627 16.1595 55.5545 16.583C55.7463 17.0005 56.0148 17.3242 56.3601 17.5541C56.7053 17.778 57.1049 17.8899 57.5589 17.8899Z" fill="#0E121B"/>
<path d="M50.3214 6.31852V19.8411H47.4922V6.31852H50.3214Z" fill="#0E121B"/>
<path d="M38.9025 20.059C37.5535 20.059 36.3675 19.7685 35.3445 19.1877C34.328 18.6069 33.532 17.7931 32.9566 16.7464C32.3875 15.6997 32.103 14.4805 32.103 13.0889C32.103 11.6489 32.3971 10.4056 32.9853 9.35884C33.5735 8.31213 34.3791 7.50742 35.4021 6.94474C36.425 6.38205 37.5759 6.10071 38.8545 6.10071C39.6729 6.10071 40.4433 6.21567 41.1658 6.44558C41.8883 6.66944 42.5276 6.99314 43.0838 7.41667C43.6465 7.83414 44.1068 8.3333 44.4648 8.91414C44.8229 9.49498 45.0466 10.1393 45.1361 10.8472H42.144C42.0609 10.5024 41.9298 10.1908 41.7508 9.91245C41.5718 9.62808 41.3416 9.38607 41.0603 9.18641C40.7854 8.98674 40.4689 8.83548 40.1109 8.73263C39.7592 8.62372 39.3692 8.56927 38.9409 8.56927C38.1417 8.56927 37.4512 8.7538 36.8694 9.12288C36.294 9.4859 35.8496 10.0062 35.5363 10.6839C35.2294 11.3555 35.076 12.1571 35.076 13.0889C35.076 14.0146 35.2326 14.8133 35.5459 15.4849C35.8592 16.1565 36.3067 16.6768 36.8886 17.0459C37.4704 17.4089 38.1672 17.5904 38.9792 17.5904C39.6441 17.5904 40.2291 17.4724 40.7342 17.2364C41.2393 16.9944 41.6325 16.6586 41.9138 16.2291C42.1923 15.8074 42.336 15.3234 42.3449 14.777H39.2286V12.6533H45.2321V14.3776C45.2321 15.497 44.9603 16.4832 44.4169 17.3363C43.8798 18.1894 43.135 18.858 42.1824 19.342C41.2297 19.82 40.1364 20.059 38.9025 20.059Z" fill="#0E121B"/>
<path d="M66.772 19.8411L63.6551 10.2573H66.6089L67.5392 13.6062C67.7246 14.2899 67.9004 15.0008 68.0667 15.739C68.1776 16.2096 68.2886 16.6765 68.3996 17.1396C68.5188 16.6765 68.638 16.2096 68.7571 15.739C68.949 15.0008 69.1408 14.2899 69.3326 13.6062L70.3012 10.2573H72.8522L73.8112 13.6062C74.003 14.2899 74.1916 15.0008 74.377 15.739C74.496 16.2088 74.615 16.6748 74.734 17.1372C74.8433 16.6748 74.9513 16.2088 75.0579 15.739C75.2306 15.0069 75.4032 14.296 75.5758 13.6062L76.4965 10.2573H79.4982L76.3814 19.8411H73.4564L72.2768 16.0294C72.1681 15.6603 72.0594 15.2822 71.9507 14.8949C71.8484 14.5077 71.7429 14.1175 71.6342 13.7242C71.6157 13.6518 71.597 13.5796 71.5783 13.5076C71.5585 13.5796 71.5388 13.6518 71.5191 13.7242C71.4168 14.1175 71.3113 14.5077 71.2027 14.8949C71.094 15.2822 70.9821 15.6603 70.867 16.0294L69.6778 19.8411H66.772Z" fill="#0E121B"/>
<defs>
<linearGradient id="paint0_linear_6989_91" x1="31.2507" y1="11.8377" x2="10.8617" y2="-4.7733" gradientUnits="userSpaceOnUse">
<stop stop-color="#F8FAFC" stop-opacity="0.64"/>
<stop offset="0.477764" stop-color="#F8FAFC"/>
<stop offset="1" stop-color="#F8FAFC" stop-opacity="0.64"/>
</linearGradient>
<radialGradient id="paint1_radial_6989_91" cx="0" cy="0" r="1" gradientUnits="userSpaceOnUse" gradientTransform="translate(7.67212 -6.06419) rotate(69.1457) scale(73.5332 112.14)">
<stop stop-color="#E9D5FF"/>
<stop offset="0.43935" stop-color="#8712F7"/>
<stop offset="1" stop-color="#0F172A" stop-opacity="0.01"/>
</radialGradient>
<linearGradient id="paint2_linear_6989_91" x1="31.2507" y1="11.8377" x2="10.8617" y2="-4.7733" gradientUnits="userSpaceOnUse">
<stop stop-color="#F8FAFC" stop-opacity="0.64"/>
<stop offset="0.477764" stop-color="#F8FAFC"/>
<stop offset="1" stop-color="#F8FAFC" stop-opacity="0.64"/>
</linearGradient>
<radialGradient id="paint3_radial_6989_91" cx="0" cy="0" r="1" gradientUnits="userSpaceOnUse" gradientTransform="translate(7.67212 -6.06419) rotate(69.1457) scale(73.5332 112.14)">
<stop stop-color="#E9D5FF"/>
<stop offset="0.43935" stop-color="#8712F7"/>
<stop offset="1" stop-color="#0F172A" stop-opacity="0.01"/>
</radialGradient>
<linearGradient id="paint4_linear_6989_91" x1="31.2507" y1="11.8377" x2="10.8617" y2="-4.7733" gradientUnits="userSpaceOnUse">
<stop stop-color="#F8FAFC" stop-opacity="0.64"/>
<stop offset="0.477764" stop-color="#F8FAFC"/>
<stop offset="1" stop-color="#F8FAFC" stop-opacity="0.64"/>
</linearGradient>
<radialGradient id="paint5_radial_6989_91" cx="0" cy="0" r="1" gradientUnits="userSpaceOnUse" gradientTransform="translate(7.67212 -6.06419) rotate(69.1457) scale(73.5332 112.14)">
<stop stop-color="#E9D5FF"/>
<stop offset="0.43935" stop-color="#8712F7"/>
<stop offset="1" stop-color="#0F172A" stop-opacity="0.01"/>
</radialGradient>
<linearGradient id="paint6_linear_6989_91" x1="31.2507" y1="11.8377" x2="10.8617" y2="-4.7733" gradientUnits="userSpaceOnUse">
<stop stop-color="#F8FAFC" stop-opacity="0.64"/>
<stop offset="0.477764" stop-color="#F8FAFC"/>
<stop offset="1" stop-color="#F8FAFC" stop-opacity="0.64"/>
</linearGradient>
<radialGradient id="paint7_radial_6989_91" cx="0" cy="0" r="1" gradientUnits="userSpaceOnUse" gradientTransform="translate(7.67212 -6.06419) rotate(69.1457) scale(73.5332 112.14)">
<stop stop-color="#E9D5FF"/>
<stop offset="0.43935" stop-color="#8712F7"/>
<stop offset="1" stop-color="#0F172A" stop-opacity="0.01"/>
</radialGradient>
<linearGradient id="paint8_linear_6989_91" x1="31.2507" y1="11.8377" x2="10.8617" y2="-4.7733" gradientUnits="userSpaceOnUse">
<stop stop-color="#F8FAFC" stop-opacity="0.64"/>
<stop offset="0.477764" stop-color="#F8FAFC"/>
<stop offset="1" stop-color="#F8FAFC" stop-opacity="0.64"/>
</linearGradient>
<radialGradient id="paint9_radial_6989_91" cx="0" cy="0" r="1" gradientUnits="userSpaceOnUse" gradientTransform="translate(7.67212 -6.06419) rotate(69.1457) scale(73.5332 112.14)">
<stop stop-color="#E9D5FF"/>
<stop offset="0.43935" stop-color="#8712F7"/>
<stop offset="1" stop-color="#0F172A" stop-opacity="0.01"/>
</radialGradient>
<linearGradient id="paint10_linear_6989_91" x1="31.2507" y1="11.8377" x2="10.8617" y2="-4.7733" gradientUnits="userSpaceOnUse">
<stop stop-color="#F8FAFC" stop-opacity="0.64"/>
<stop offset="0.477764" stop-color="#F8FAFC"/>
<stop offset="1" stop-color="#F8FAFC" stop-opacity="0.64"/>
</linearGradient>
<radialGradient id="paint11_radial_6989_91" cx="0" cy="0" r="1" gradientUnits="userSpaceOnUse" gradientTransform="translate(7.67212 -6.06419) rotate(69.1457) scale(73.5332 112.14)">
<stop stop-color="#E9D5FF"/>
<stop offset="0.43935" stop-color="#8712F7"/>
<stop offset="1" stop-color="#0F172A" stop-opacity="0.01"/>
</radialGradient>
<linearGradient id="paint12_linear_6989_91" x1="31.2507" y1="11.8377" x2="10.8617" y2="-4.7733" gradientUnits="userSpaceOnUse">
<stop stop-color="#F8FAFC" stop-opacity="0.64"/>
<stop offset="0.477764" stop-color="#F8FAFC"/>
<stop offset="1" stop-color="#F8FAFC" stop-opacity="0.64"/>
</linearGradient>
<radialGradient id="paint13_radial_6989_91" cx="0" cy="0" r="1" gradientUnits="userSpaceOnUse" gradientTransform="translate(7.67212 -6.06419) rotate(69.1457) scale(73.5332 112.14)">
<stop stop-color="#E9D5FF"/>
<stop offset="0.43935" stop-color="#8712F7"/>
<stop offset="1" stop-color="#0F172A" stop-opacity="0.01"/>
</radialGradient>
<linearGradient id="paint14_linear_6989_91" x1="31.2507" y1="11.8377" x2="10.8617" y2="-4.7733" gradientUnits="userSpaceOnUse">
<stop stop-color="#F8FAFC" stop-opacity="0.64"/>
<stop offset="0.477764" stop-color="#F8FAFC"/>
<stop offset="1" stop-color="#F8FAFC" stop-opacity="0.64"/>
</linearGradient>
<radialGradient id="paint15_radial_6989_91" cx="0" cy="0" r="1" gradientUnits="userSpaceOnUse" gradientTransform="translate(7.67212 -6.06419) rotate(69.1457) scale(73.5332 112.14)">
<stop stop-color="#E9D5FF"/>
<stop offset="0.43935" stop-color="#8712F7"/>
<stop offset="1" stop-color="#0F172A" stop-opacity="0.01"/>
</radialGradient>
<linearGradient id="paint16_linear_6989_91" x1="31.2507" y1="11.8377" x2="10.8617" y2="-4.7733" gradientUnits="userSpaceOnUse">
<stop stop-color="#F8FAFC" stop-opacity="0.64"/>
<stop offset="0.477764" stop-color="#F8FAFC"/>
<stop offset="1" stop-color="#F8FAFC" stop-opacity="0.64"/>
</linearGradient>
<radialGradient id="paint17_radial_6989_91" cx="0" cy="0" r="1" gradientUnits="userSpaceOnUse" gradientTransform="translate(7.67212 -6.06419) rotate(69.1457) scale(73.5332 112.14)">
<stop stop-color="#E9D5FF"/>
<stop offset="0.43935" stop-color="#8712F7"/>
<stop offset="1" stop-color="#0F172A" stop-opacity="0.01"/>
</radialGradient>
<linearGradient id="paint18_linear_6989_91" x1="31.2507" y1="11.8377" x2="10.8617" y2="-4.7733" gradientUnits="userSpaceOnUse">
<stop stop-color="#F8FAFC" stop-opacity="0.64"/>
<stop offset="0.477764" stop-color="#F8FAFC"/>
<stop offset="1" stop-color="#F8FAFC" stop-opacity="0.64"/>
</linearGradient>
<radialGradient id="paint19_radial_6989_91" cx="0" cy="0" r="1" gradientUnits="userSpaceOnUse" gradientTransform="translate(7.67212 -6.06419) rotate(69.1457) scale(73.5332 112.14)">
<stop stop-color="#E9D5FF"/>
<stop offset="0.43935" stop-color="#8712F7"/>
<stop offset="1" stop-color="#0F172A" stop-opacity="0.01"/>
</radialGradient>
<linearGradient id="paint20_linear_6989_91" x1="31.2507" y1="11.8377" x2="10.8617" y2="-4.7733" gradientUnits="userSpaceOnUse">
<stop stop-color="#F8FAFC" stop-opacity="0.64"/>
<stop offset="0.477764" stop-color="#F8FAFC"/>
<stop offset="1" stop-color="#F8FAFC" stop-opacity="0.64"/>
</linearGradient>
<radialGradient id="paint21_radial_6989_91" cx="0" cy="0" r="1" gradientUnits="userSpaceOnUse" gradientTransform="translate(7.67212 -6.06419) rotate(69.1457) scale(73.5332 112.14)">
<stop stop-color="#E9D5FF"/>
<stop offset="0.43935" stop-color="#8712F7"/>
<stop offset="1" stop-color="#0F172A" stop-opacity="0.01"/>
</radialGradient>
<linearGradient id="paint22_linear_6989_91" x1="31.2507" y1="11.8377" x2="10.8617" y2="-4.7733" gradientUnits="userSpaceOnUse">
<stop stop-color="#F8FAFC" stop-opacity="0.64"/>
<stop offset="0.477764" stop-color="#F8FAFC"/>
<stop offset="1" stop-color="#F8FAFC" stop-opacity="0.64"/>
</linearGradient>
<radialGradient id="paint23_radial_6989_91" cx="0" cy="0" r="1" gradientUnits="userSpaceOnUse" gradientTransform="translate(7.67212 -6.06419) rotate(69.1457) scale(73.5332 112.14)">
<stop stop-color="#E9D5FF"/>
<stop offset="0.43935" stop-color="#8712F7"/>
<stop offset="1" stop-color="#0F172A" stop-opacity="0.01"/>
</radialGradient>
<linearGradient id="paint24_linear_6989_91" x1="31.2507" y1="11.8377" x2="10.8617" y2="-4.7733" gradientUnits="userSpaceOnUse">
<stop stop-color="#F8FAFC" stop-opacity="0.64"/>
<stop offset="0.477764" stop-color="#F8FAFC"/>
<stop offset="1" stop-color="#F8FAFC" stop-opacity="0.64"/>
</linearGradient>
<radialGradient id="paint25_radial_6989_91" cx="0" cy="0" r="1" gradientUnits="userSpaceOnUse" gradientTransform="translate(7.67212 -6.06419) rotate(69.1457) scale(73.5332 112.14)">
<stop stop-color="#E9D5FF"/>
<stop offset="0.43935" stop-color="#8712F7"/>
<stop offset="1" stop-color="#0F172A" stop-opacity="0.01"/>
</radialGradient>
<linearGradient id="paint26_linear_6989_91" x1="31.2507" y1="11.8377" x2="10.8617" y2="-4.7733" gradientUnits="userSpaceOnUse">
<stop stop-color="#F8FAFC" stop-opacity="0.64"/>
<stop offset="0.477764" stop-color="#F8FAFC"/>
<stop offset="1" stop-color="#F8FAFC" stop-opacity="0.64"/>
</linearGradient>
<radialGradient id="paint27_radial_6989_91" cx="0" cy="0" r="1" gradientUnits="userSpaceOnUse" gradientTransform="translate(7.67212 -6.06419) rotate(69.1457) scale(73.5332 112.14)">
<stop stop-color="#E9D5FF"/>
<stop offset="0.43935" stop-color="#8712F7"/>
<stop offset="1" stop-color="#0F172A" stop-opacity="0.01"/>
</radialGradient>
<linearGradient id="paint28_linear_6989_91" x1="31.2507" y1="11.8377" x2="10.8617" y2="-4.7733" gradientUnits="userSpaceOnUse">
<stop stop-color="#F8FAFC" stop-opacity="0.64"/>
<stop offset="0.477764" stop-color="#F8FAFC"/>
<stop offset="1" stop-color="#F8FAFC" stop-opacity="0.64"/>
</linearGradient>
<radialGradient id="paint29_radial_6989_91" cx="0" cy="0" r="1" gradientUnits="userSpaceOnUse" gradientTransform="translate(7.67212 -6.06419) rotate(69.1457) scale(73.5332 112.14)">
<stop stop-color="#E9D5FF"/>
<stop offset="0.43935" stop-color="#8712F7"/>
<stop offset="1" stop-color="#0F172A" stop-opacity="0.01"/>
</radialGradient>
<linearGradient id="paint30_linear_6989_91" x1="31.2507" y1="11.8377" x2="10.8617" y2="-4.7733" gradientUnits="userSpaceOnUse">
<stop stop-color="#F8FAFC" stop-opacity="0.64"/>
<stop offset="0.477764" stop-color="#F8FAFC"/>
<stop offset="1" stop-color="#F8FAFC" stop-opacity="0.64"/>
</linearGradient>
<radialGradient id="paint31_radial_6989_91" cx="0" cy="0" r="1" gradientUnits="userSpaceOnUse" gradientTransform="translate(7.67212 -6.06419) rotate(69.1457) scale(73.5332 112.14)">
<stop stop-color="#E9D5FF"/>
<stop offset="0.43935" stop-color="#8712F7"/>
<stop offset="1" stop-color="#0F172A" stop-opacity="0.01"/>
</radialGradient>
<linearGradient id="paint32_linear_6989_91" x1="31.2507" y1="11.8377" x2="10.8617" y2="-4.7733" gradientUnits="userSpaceOnUse">
<stop stop-color="#F8FAFC" stop-opacity="0.64"/>
<stop offset="0.477764" stop-color="#F8FAFC"/>
<stop offset="1" stop-color="#F8FAFC" stop-opacity="0.64"/>
</linearGradient>
<radialGradient id="paint33_radial_6989_91" cx="0" cy="0" r="1" gradientUnits="userSpaceOnUse" gradientTransform="translate(7.67212 -6.06419) rotate(69.1457) scale(73.5332 112.14)">
<stop stop-color="#E9D5FF"/>
<stop offset="0.43935" stop-color="#8712F7"/>
<stop offset="1" stop-color="#0F172A" stop-opacity="0.01"/>
</radialGradient>
<linearGradient id="paint34_linear_6989_91" x1="31.2507" y1="11.8377" x2="10.8617" y2="-4.7733" gradientUnits="userSpaceOnUse">
<stop stop-color="#F8FAFC" stop-opacity="0.64"/>
<stop offset="0.477764" stop-color="#F8FAFC"/>
<stop offset="1" stop-color="#F8FAFC" stop-opacity="0.64"/>
</linearGradient>
<radialGradient id="paint35_radial_6989_91" cx="0" cy="0" r="1" gradientUnits="userSpaceOnUse" gradientTransform="translate(7.67212 -6.06419) rotate(69.1457) scale(73.5332 112.14)">
<stop stop-color="#E9D5FF"/>
<stop offset="0.43935" stop-color="#8712F7"/>
<stop offset="1" stop-color="#0F172A" stop-opacity="0.01"/>
</radialGradient>
<linearGradient id="paint36_linear_6989_91" x1="31.2507" y1="11.8377" x2="10.8617" y2="-4.7733" gradientUnits="userSpaceOnUse">
<stop stop-color="#F8FAFC" stop-opacity="0.64"/>
<stop offset="0.477764" stop-color="#F8FAFC"/>
<stop offset="1" stop-color="#F8FAFC" stop-opacity="0.64"/>
</linearGradient>
<radialGradient id="paint37_radial_6989_91" cx="0" cy="0" r="1" gradientUnits="userSpaceOnUse" gradientTransform="translate(7.67212 -6.06419) rotate(69.1457) scale(73.5332 112.14)">
<stop stop-color="#E9D5FF"/>
<stop offset="0.43935" stop-color="#8712F7"/>
<stop offset="1" stop-color="#0F172A" stop-opacity="0.01"/>
</radialGradient>
<linearGradient id="paint38_linear_6989_91" x1="31.2507" y1="11.8377" x2="10.8617" y2="-4.7733" gradientUnits="userSpaceOnUse">
<stop stop-color="#F8FAFC" stop-opacity="0.64"/>
<stop offset="0.477764" stop-color="#F8FAFC"/>
<stop offset="1" stop-color="#F8FAFC" stop-opacity="0.64"/>
</linearGradient>
<radialGradient id="paint39_radial_6989_91" cx="0" cy="0" r="1" gradientUnits="userSpaceOnUse" gradientTransform="translate(7.67212 -6.06419) rotate(69.1457) scale(73.5332 112.14)">
<stop stop-color="#E9D5FF"/>
<stop offset="0.43935" stop-color="#8712F7"/>
<stop offset="1" stop-color="#0F172A" stop-opacity="0.01"/>
</radialGradient>
<linearGradient id="paint40_linear_6989_91" x1="31.2507" y1="11.8377" x2="10.8617" y2="-4.7733" gradientUnits="userSpaceOnUse">
<stop stop-color="#F8FAFC" stop-opacity="0.64"/>
<stop offset="0.477764" stop-color="#F8FAFC"/>
<stop offset="1" stop-color="#F8FAFC" stop-opacity="0.64"/>
</linearGradient>
<radialGradient id="paint41_radial_6989_91" cx="0" cy="0" r="1" gradientUnits="userSpaceOnUse" gradientTransform="translate(7.67212 -6.06419) rotate(69.1457) scale(73.5332 112.14)">
<stop stop-color="#E9D5FF"/>
<stop offset="0.43935" stop-color="#8712F7"/>
<stop offset="1" stop-color="#0F172A" stop-opacity="0.01"/>
</radialGradient>
<linearGradient id="paint42_linear_6989_91" x1="31.2507" y1="11.8377" x2="10.8617" y2="-4.7733" gradientUnits="userSpaceOnUse">
<stop stop-color="#F8FAFC" stop-opacity="0.64"/>
<stop offset="0.477764" stop-color="#F8FAFC"/>
<stop offset="1" stop-color="#F8FAFC" stop-opacity="0.64"/>
</linearGradient>
<radialGradient id="paint43_radial_6989_91" cx="0" cy="0" r="1" gradientUnits="userSpaceOnUse" gradientTransform="translate(7.67212 -6.06419) rotate(69.1457) scale(73.5332 112.14)">
<stop stop-color="#E9D5FF"/>
<stop offset="0.43935" stop-color="#8712F7"/>
<stop offset="1" stop-color="#0F172A" stop-opacity="0.01"/>
</radialGradient>
<linearGradient id="paint44_linear_6989_91" x1="31.2507" y1="11.8377" x2="10.8617" y2="-4.7733" gradientUnits="userSpaceOnUse">
<stop stop-color="#F8FAFC" stop-opacity="0.64"/>
<stop offset="0.477764" stop-color="#F8FAFC"/>
<stop offset="1" stop-color="#F8FAFC" stop-opacity="0.64"/>
</linearGradient>
<radialGradient id="paint45_radial_6989_91" cx="0" cy="0" r="1" gradientUnits="userSpaceOnUse" gradientTransform="translate(7.67212 -6.06419) rotate(69.1457) scale(73.5332 112.14)">
<stop stop-color="#E9D5FF"/>
<stop offset="0.43935" stop-color="#8712F7"/>
<stop offset="1" stop-color="#0F172A" stop-opacity="0.01"/>
</radialGradient>
<linearGradient id="paint46_linear_6989_91" x1="31.2507" y1="11.8377" x2="10.8617" y2="-4.7733" gradientUnits="userSpaceOnUse">
<stop stop-color="#F8FAFC" stop-opacity="0.64"/>
<stop offset="0.477764" stop-color="#F8FAFC"/>
<stop offset="1" stop-color="#F8FAFC" stop-opacity="0.64"/>
</linearGradient>
<radialGradient id="paint47_radial_6989_91" cx="0" cy="0" r="1" gradientUnits="userSpaceOnUse" gradientTransform="translate(7.67212 -6.06419) rotate(69.1457) scale(73.5332 112.14)">
<stop stop-color="#E9D5FF"/>
<stop offset="0.43935" stop-color="#8712F7"/>
<stop offset="1" stop-color="#0F172A" stop-opacity="0.01"/>
</radialGradient>
<linearGradient id="paint48_linear_6989_91" x1="31.2507" y1="11.8377" x2="10.8617" y2="-4.7733" gradientUnits="userSpaceOnUse">
<stop stop-color="#F8FAFC" stop-opacity="0.64"/>
<stop offset="0.477764" stop-color="#F8FAFC"/>
<stop offset="1" stop-color="#F8FAFC" stop-opacity="0.64"/>
</linearGradient>
<radialGradient id="paint49_radial_6989_91" cx="0" cy="0" r="1" gradientUnits="userSpaceOnUse" gradientTransform="translate(7.67212 -6.06419) rotate(69.1457) scale(73.5332 112.14)">
<stop stop-color="#E9D5FF"/>
<stop offset="0.43935" stop-color="#8712F7"/>
<stop offset="1" stop-color="#0F172A" stop-opacity="0.01"/>
</radialGradient>
<linearGradient id="paint50_linear_6989_91" x1="31.2507" y1="11.8377" x2="10.8617" y2="-4.7733" gradientUnits="userSpaceOnUse">
<stop stop-color="#F8FAFC" stop-opacity="0.64"/>
<stop offset="0.477764" stop-color="#F8FAFC"/>
<stop offset="1" stop-color="#F8FAFC" stop-opacity="0.64"/>
</linearGradient>
<radialGradient id="paint51_radial_6989_91" cx="0" cy="0" r="1" gradientUnits="userSpaceOnUse" gradientTransform="translate(7.67212 -6.06419) rotate(69.1457) scale(73.5332 112.14)">
<stop stop-color="#E9D5FF"/>
<stop offset="0.43935" stop-color="#8712F7"/>
<stop offset="1" stop-color="#0F172A" stop-opacity="0.01"/>
</radialGradient>
<linearGradient id="paint52_linear_6989_91" x1="31.2507" y1="11.8377" x2="10.8617" y2="-4.7733" gradientUnits="userSpaceOnUse">
<stop stop-color="#F8FAFC" stop-opacity="0.64"/>
<stop offset="0.477764" stop-color="#F8FAFC"/>
<stop offset="1" stop-color="#F8FAFC" stop-opacity="0.64"/>
</linearGradient>
<radialGradient id="paint53_radial_6989_91" cx="0" cy="0" r="1" gradientUnits="userSpaceOnUse" gradientTransform="translate(7.67212 -6.06419) rotate(69.1457) scale(73.5332 112.14)">
<stop stop-color="#E9D5FF"/>
<stop offset="0.43935" stop-color="#8712F7"/>
<stop offset="1" stop-color="#0F172A" stop-opacity="0.01"/>
</radialGradient>
</defs>
</svg>
